<?xml version="1.0" encoding="UTF-8"?>
<svg version="1.1" xmlns="http://www.w3.org/2000/svg" width="215" height="214">
<path d="M0 0 C3.54429771 1.29956116 5.84603459 3.57064501 8.5090332 6.18676758 C9.39287186 7.05139114 10.27671051 7.91601471 11.18733215 8.80683899 C12.14236603 9.75218024 13.09683587 10.6980916 14.05078125 11.64453125 C15.03394827 12.61618807 16.01711786 13.58784229 17.00028992 14.55949402 C19.05591016 16.59414526 21.10686717 18.63338162 23.15551758 20.67504883 C25.78298711 23.29151581 28.4285122 25.88889723 31.07871723 28.48230457 C33.1141842 30.48056325 35.13614829 32.49207448 37.15462303 34.50748253 C38.1245346 35.47133688 39.09945104 36.43018174 40.0793705 37.38385963 C41.44624853 38.71669255 42.79263562 40.07044309 44.13793945 41.42504883 C44.90975052 42.18956863 45.68156158 42.95408844 46.47676086 43.74177551 C48 46 48 46 47.74137878 48.78593445 C47.49672379 49.51657608 47.25206879 50.24721771 47 51 C46.34 51 45.68 51 45 51 C44.67 51.99 44.34 52.98 44 54 C42.42480469 55.53637695 42.42480469 55.53637695 40.421875 57.17578125 C36.03124809 60.90154739 32.14108058 64.95028036 28.25 69.1875 C18.96413861 79.22401485 18.96413861 79.22401485 17 81 C16.34 81 15.68 81 15 81 C15 81.66 15 82.32 15 83 C13.42578125 84.55078125 13.42578125 84.55078125 11.3125 86.3125 C8.04699036 89.08499308 4.98084015 91.92600859 2 95 C-2.13683474 93.6285219 -4.5507155 91.81628119 -7.60668945 88.73388672 C-8.9274926 87.41274368 -8.9274926 87.41274368 -10.27497864 86.06491089 C-11.22124221 85.10332984 -12.16733923 84.14158487 -13.11328125 83.1796875 C-14.09196832 82.19540078 -15.07132314 81.2117776 -16.05131531 80.22879028 C-18.62092899 77.64775696 -21.18140315 75.05784044 -23.74005127 72.46594238 C-26.3557251 69.81950548 -28.97997948 67.18160746 -31.60351562 64.54296875 C-36.74409275 59.37027835 -41.87504048 54.18816928 -47 49 C-45.63967273 44.92719674 -43.88968875 42.51857091 -40.85742188 39.50097656 C-40.00313599 38.64368958 -39.1488501 37.78640259 -38.26867676 36.90313721 C-37.34470093 35.99150818 -36.4207251 35.07987915 -35.46875 34.140625 C-34.51174587 33.18668093 -33.55533354 32.23214284 -32.5994873 31.27703857 C-30.59998584 29.28212876 -28.59568882 27.2922174 -26.58740234 25.30615234 C-24.01140481 22.75851292 -21.44423461 20.20220517 -18.88014984 17.64258194 C-16.90756281 15.67414707 -14.93216067 13.70855948 -12.95570374 11.74401093 C-11.54691633 10.3436971 -10.13911412 8.94239233 -8.73132324 7.54107666 C-7.87703735 6.69639832 -7.02275146 5.85171997 -6.14257812 4.98144531 C-5.38916138 4.23485657 -4.63574463 3.48826782 -3.85949707 2.71905518 C-2 1 -2 1 0 0 Z " fill="#9FA0A2" transform="translate(158,57)"/>
<path d="M0 0 C2.68182814 1.34953994 4.46662994 3.07481924 6.60281372 5.18833923 C7.95860283 6.52026054 7.95860283 6.52026054 9.34178162 7.87908936 C10.31889091 8.85493173 11.29545594 9.83131934 12.27151489 10.80821228 C13.27681087 11.80640766 14.28240495 12.80430289 15.2882843 13.8019104 C17.39232755 15.89251498 19.49034568 17.98895645 21.58474731 20.08921814 C24.27271965 22.783099 26.97852443 25.45824918 29.68954945 28.12890339 C31.76991927 30.18346399 33.83875098 32.24934409 35.90442467 34.31867027 C36.89767147 35.31022079 37.89492047 36.29777867 38.89615822 37.28125954 C40.291986 38.65502699 41.6705207 40.04629928 43.04812622 41.43833923 C43.83770218 42.22586075 44.62727814 43.01338226 45.44078064 43.82476807 C47.00198364 46.00743103 47.00198364 46.00743103 47.01040649 48.00544739 C45.65986269 50.68663077 43.93452231 52.47215124 41.82107544 54.60826111 C40.9331279 55.51212051 40.04518036 56.41597992 39.13032532 57.347229 C38.15448294 58.3243383 37.17809534 59.30090332 36.20120239 60.27696228 C35.20300701 61.28225825 34.20511178 62.28785233 33.20750427 63.29373169 C31.11689969 65.39777494 29.02045822 67.49579307 26.92019653 69.5901947 C24.22631567 72.27816704 21.55116549 74.98397181 18.88051128 77.69499683 C16.82595068 79.77536665 14.76007058 81.84419837 12.6907444 83.90987206 C11.69919388 84.90311886 10.711636 85.90036786 9.72815514 86.90160561 C8.35438768 88.29743339 6.96311539 89.67596809 5.57107544 91.05357361 C4.78355392 91.84314957 3.99603241 92.63272552 3.18464661 93.44622803 C1.00198364 95.00743103 1.00198364 95.00743103 -1.13563538 94.88638306 C-3.96277686 93.55211163 -5.72984736 91.51410119 -7.87301636 89.25743103 C-11.84984855 85.12243421 -11.84984855 85.12243421 -16.18551636 81.38243103 C-18.42503403 79.49128277 -20.1234339 77.77942649 -21.99801636 75.56993103 C-29.84438244 66.37797433 -38.6826242 57.70275499 -47.99801636 50.00743103 C-47.50829333 45.48274466 -45.9891389 43.49014924 -42.81710815 40.29307556 C-41.48518684 38.93739975 -41.48518684 38.93739975 -40.12635803 37.55433655 C-39.15056715 36.58238613 -38.17417828 35.61103574 -37.19723511 34.64024353 C-36.19882149 33.63659426 -35.20092942 32.63242593 -34.20353699 31.62776184 C-32.11436851 29.52819802 -30.0179009 27.43627328 -27.91622925 25.34922791 C-25.22060823 22.67083423 -22.54592755 19.97256543 -19.876544 17.26805305 C-17.82217612 15.19175907 -15.75628311 13.12724732 -13.68677711 11.06605148 C-12.69536888 10.07546461 -11.70781134 9.08100852 -10.72418785 8.08269119 C-9.35050052 6.6916413 -7.95919073 5.31806012 -6.56710815 3.94541931 C-5.77958664 3.15885956 -4.99206512 2.3722998 -4.18067932 1.56190491 C-1.99801636 0.00743103 -1.99801636 0.00743103 0 0 Z " fill="#D0D1D2" transform="translate(106.99801635742188,4.9925689697265625)"/>
<path d="M0 0 C5.60373236 2.69501535 9.14214264 6.1776783 13 11 C13.763125 11.598125 14.52625 12.19625 15.3125 12.8125 C18.37968035 15.30904215 20.74288344 18.11149662 23.30078125 21.11328125 C25.3310637 23.36759487 27.61618712 25.13160612 30 27 C31.34736973 28.65533995 32.68334336 30.32012773 34 32 C34.66 32.33 35.32 32.66 36 33 C36 33.66 36 34.32 36 35 C37.485 35.495 37.485 35.495 39 36 C39 36.66 39 37.32 39 38 C40.485 38.495 40.485 38.495 42 39 C43.37482707 40.63260714 44.70647667 42.30225062 46 44 C46.98230498 45.0173873 47.97469597 46.02596117 49 47 C46.95437779 50.6689928 44.72147424 53.54286015 41.77563477 56.53076172 C40.92787979 57.39450409 40.08012482 58.25824646 39.2066803 59.14816284 C38.29413986 60.06606598 37.38159943 60.98396912 36.44140625 61.9296875 C35.49113236 62.88893477 34.54093311 63.84825599 33.59080505 64.80764771 C31.6048406 66.81004797 29.61457283 68.80806145 27.62182617 70.80371094 C25.06649861 73.36444887 22.52776153 75.94099768 19.99260044 78.52168083 C18.03907013 80.50489458 16.0744405 82.47681809 14.1065197 84.44574356 C12.70727272 85.85125005 11.31968609 87.26833368 9.93226624 88.68551636 C9.0813591 89.53034576 8.23045197 90.37517517 7.35375977 91.24560547 C6.60780045 91.99663544 5.86184113 92.74766541 5.09327698 93.52145386 C3 95 3 95 0.95487976 94.94134521 C-1.37545489 93.81920491 -2.81590025 92.53778287 -4.63183594 90.69287109 C-5.32645935 89.9947934 -6.02108276 89.2967157 -6.73675537 88.57748413 C-7.47846985 87.81714874 -8.22018433 87.05681335 -8.984375 86.2734375 C-9.75879944 85.49239655 -10.53322388 84.71135559 -11.33111572 83.90664673 C-13.81125914 81.40307984 -16.28106677 78.88961859 -18.75 76.375 C-21.20628336 73.883489 -23.66473316 71.39417425 -26.1260376 68.90762329 C-27.65648001 67.36040657 -29.18381319 65.81010579 -30.7074585 64.25619507 C-34.77286571 60.13469211 -38.89937087 56.30275395 -43.45172119 52.71987915 C-45.50902858 50.43455427 -45.97326551 49.07757959 -46 46 C-44.37391663 43.65238953 -44.37391663 43.65238953 -41.89086914 41.2097168 C-40.96983902 40.28913986 -40.0488089 39.36856293 -39.09986877 38.42008972 C-38.07861302 37.42947446 -37.05703447 36.43919189 -36.03515625 35.44921875 C-35.00109395 34.42634782 -33.9683491 33.40214344 -32.93687439 32.37666321 C-30.21921468 29.68190632 -27.48402162 27.00564977 -24.74481201 24.33282471 C-21.9525458 21.60194925 -19.17720001 18.85399703 -16.40039062 16.10742188 C-10.95003241 10.72140187 -5.48104308 5.35480958 0 0 Z " fill="#0372B9" transform="translate(53,57)"/>
<path d="M0 0 C3.34336689 0.41543981 4.98734637 1.62131698 7.31225586 3.98754883 C7.93647934 4.61522659 8.56070282 5.24290436 9.20384216 5.88960266 C9.86747269 6.5718541 10.53110321 7.25410553 11.21484375 7.95703125 C11.90759903 8.65640305 12.60035431 9.35577484 13.31410217 10.07633972 C15.52910125 12.31475089 17.73371689 14.5630501 19.9375 16.8125 C22.13937327 19.04951851 24.34338869 21.28436428 26.55018616 23.51652527 C27.92244919 24.90566182 29.29160695 26.29787477 30.6572113 27.69355774 C33.9546498 31.04228672 37.26209206 34.13420046 41 37 C42.33089742 38.27270228 43.62618146 39.5841666 44.875 40.9375 C45.49117188 41.58589844 46.10734375 42.23429687 46.7421875 42.90234375 C48 45 48 45 47.7578125 47.62890625 C47 50 47 50 46 52 C45.34 52 44.68 52 44 52 C44 52.66 44 53.32 44 54 C42.52630615 55.44750977 42.52630615 55.44750977 40.49121094 57.12890625 C36.12339936 60.84498824 32.13042717 64.82318569 28.140625 68.9375 C26.68158045 70.42375736 25.22192778 71.90941794 23.76171875 73.39453125 C21.48888319 75.71087552 19.22018269 78.03075884 16.96142578 80.36083984 C14.76159018 82.6269213 12.54646748 84.87705269 10.328125 87.125 C9.65203186 87.83003662 8.97593872 88.53507324 8.27935791 89.26147461 C7.32751617 90.21872437 7.32751617 90.21872437 6.35644531 91.1953125 C5.52660126 92.04633545 5.52660126 92.04633545 4.67999268 92.91455078 C3 94 3 94 0.93688965 93.80166626 C-1.98999505 92.59024737 -3.72001412 90.594995 -5.921875 88.3359375 C-6.38555481 87.86564117 -6.84923462 87.39534485 -7.32696533 86.91079712 C-8.80859836 85.4058144 -10.2797384 83.89108668 -11.75 82.375 C-13.67836624 80.39977266 -15.61112147 78.42892468 -17.546875 76.4609375 C-18.01504639 75.98422104 -18.48321777 75.50750458 -18.96557617 75.01634216 C-22.2805902 71.66467985 -25.70775782 68.5011641 -29.30371094 65.45483398 C-32.04027698 63.10779929 -34.54372344 60.64049731 -37 58 C-37 57.34 -37 56.68 -37 56 C-37.99 55.67 -38.98 55.34 -40 55 C-41.60546875 53.37109375 -41.60546875 53.37109375 -43.1875 51.4375 C-43.98220703 50.47650391 -43.98220703 50.47650391 -44.79296875 49.49609375 C-45.19128906 49.00238281 -45.58960938 48.50867188 -46 48 C-44.69386058 44.08158173 -43.16870152 41.67359191 -40 39 C-39.34 39 -38.68 39 -38 39 C-37.78102051 38.45577393 -37.56204102 37.91154785 -37.33642578 37.35083008 C-35.55934561 34.2248701 -33.15642685 31.89028185 -30.6171875 29.38671875 C-30.08408966 28.85407913 -29.55099182 28.32143951 -29.0017395 27.7726593 C-27.87266483 26.64660079 -26.74116559 25.5229688 -25.60742188 24.40161133 C-23.89664129 22.70891256 -22.19382508 21.00852511 -20.4921875 19.30664062 C-15.33061926 14.16237025 -10.15792221 9.08810335 -4.59033203 4.37817383 C-2.93878321 3.02048248 -2.93878321 3.02048248 -1.53857422 1.2565918 C-0.77697998 0.63457886 -0.77697998 0.63457886 0 0 Z " fill="#049931" transform="translate(105,110)"/>
<path d="M0 0 C1.65 0 3.3 0 5 0 C1.10023279 4.66874537 -2.95214644 9.09127809 -7.2734375 13.37109375 C-7.84204498 13.93828629 -8.41065247 14.50547882 -8.99649048 15.08985901 C-10.78696236 16.87479913 -12.58090484 18.65620256 -14.375 20.4375 C-15.60049323 21.65796939 -16.82575572 22.87867053 -18.05078125 24.09960938 C-21.03119774 27.06908756 -24.01472894 30.03540257 -27 33 C-27.33 31.68 -27.66 30.36 -28 29 C-27.01 29 -26.02 29 -25 29 C-25.061875 28.21625 -25.12375 27.4325 -25.1875 26.625 C-25.125625 25.75875 -25.06375 24.8925 -25 24 C-22 22 -22 22 -18 22 C-18 21.34 -18 20.68 -18 20 C-18.99 20 -19.98 20 -21 20 C-21 19.34 -21 18.68 -21 18 C-19.35 18.33 -17.7 18.66 -16 19 C-16 17.35 -16 15.7 -16 14 C-15.01 14 -14.02 14 -13 14 C-12.01 13.34 -11.02 12.68 -10 12 C-10 11.34 -10 10.68 -10 10 C-8.68 10 -7.36 10 -6 10 C-6.33 8.68 -6.66 7.36 -7 6 C-4.35261084 4.5393715 -3.10551666 4 0 4 C0 2.68 0 1.36 0 0 Z " fill="#34A159" transform="translate(140,166)"/>
<path d="M0 0 C0.99 0.33 1.98 0.66 3 1 C3 1.66 3 2.32 3 3 C3.99 3.33 4.98 3.66 6 4 C7.37482707 5.63260714 8.70647667 7.30225062 10 9 C10.98230498 10.0173873 11.97469597 11.02596117 13 12 C10.52277037 16.80873987 7.01042883 20.43174665 3 24 C2.67 24 2.34 24 2 24 C2 22.02 2 20.04 2 18 C2.99 17.67 3.98 17.34 5 17 C5.33 16.01 5.66 15.02 6 14 C4.68 14 3.36 14 2 14 C1.93941406 13.24074219 1.87882812 12.48148438 1.81640625 11.69921875 C1.73261719 10.70535156 1.64882812 9.71148437 1.5625 8.6875 C1.48128906 7.70136719 1.40007812 6.71523437 1.31640625 5.69921875 C1.08187441 2.90624401 1.08187441 2.90624401 0 0 Z " fill="#2680BA" transform="translate(89,92)"/>
<path d="M0 0 C0.33 1.32 0.66 2.64 1 4 C0.34 4 -0.32 4 -1 4 C-1 4.66 -1 5.32 -1 6 C-1.66 6 -2.32 6 -3 6 C-3.061875 6.61875 -3.12375 7.2375 -3.1875 7.875 C-3.455625 8.57625 -3.72375 9.2775 -4 10 C-5.65204456 10.70211894 -7.31923769 11.36971413 -9 12 C-9.33 12.99 -9.66 13.98 -10 15 C-10.66 15 -11.32 15 -12 15 C-13.76462683 18.08809695 -14 19.23312136 -14 23 C-12.68 23.33 -11.36 23.66 -10 24 C-10.33 24.99 -10.66 25.98 -11 27 C-14.26460973 25.19587357 -15.88929795 24.16605307 -18 21 C-17.73439803 17.24261117 -15.79769304 15.4466332 -13.18359375 12.890625 C-12.41982422 12.13652344 -11.65605469 11.38242188 -10.86914062 10.60546875 C-10.06669922 9.82816406 -9.26425781 9.05085938 -8.4375 8.25 C-7.63119141 7.45722656 -6.82488281 6.66445312 -5.99414062 5.84765625 C-4.00266222 3.89152954 -2.00452279 1.94274281 0 0 Z " fill="#5B9BC2" transform="translate(25,85)"/>
<path d="M0 0 C0.6875 1.8125 0.6875 1.8125 1 4 C-0.3125 5.75 -0.3125 5.75 -2 7 C-2.66 7 -3.32 7 -4 7 C-4.268125 7.763125 -4.53625 8.52625 -4.8125 9.3125 C-6 12 -6 12 -7.625 13.4375 C-9.33119503 15.05321236 -9.33119503 15.05321236 -9.1875 18.1875 C-9.125625 19.115625 -9.06375 20.04375 -9 21 C-11 21 -11 21 -12.75 19.3125 C-14 17 -14 17 -13.4375 14.5 C-11.90158201 11.82883828 -10.3522361 9.98469921 -8 8 C-7.34 8 -6.68 8 -6 8 C-5.7525 7.4225 -5.505 6.845 -5.25 6.25 C-3.83316683 3.6997003 -2.12372463 1.98214299 0 0 Z " fill="#43A661" transform="translate(73,141)"/>
<path d="M0 0 C0.99 0.33 1.98 0.66 3 1 C2.34 1 1.68 1 1 1 C0.7525 1.5775 0.505 2.155 0.25 2.75 C-1.18299988 5.32939979 -2.78424676 7.06121592 -5 9 C-5.66 9 -6.32 9 -7 9 C-7.25265625 9.57878906 -7.5053125 10.15757813 -7.765625 10.75390625 C-11.15346433 16.91848731 -17.56560688 21.65248551 -23 26 C-23.66 25.67 -24.32 25.34 -25 25 C-16.75 16.75 -8.5 8.5 0 0 Z " fill="#E0E0E1" transform="translate(105,5)"/>
<path d="M0 0 C1.4540625 0.0309375 1.4540625 0.0309375 2.9375 0.0625 C-2.03411218 6.08076738 -7.36079243 11.72587352 -13.0625 17.0625 C-13.3925 17.0625 -13.7225 17.0625 -14.0625 17.0625 C-14.0625 15.0825 -14.0625 13.1025 -14.0625 11.0625 C-13.423125 10.959375 -12.78375 10.85625 -12.125 10.75 C-11.1040625 10.4096875 -11.1040625 10.4096875 -10.0625 10.0625 C-9.7325 9.0725 -9.4025 8.0825 -9.0625 7.0625 C-7.7425 7.0625 -6.4225 7.0625 -5.0625 7.0625 C-4.918125 6.093125 -4.77375 5.12375 -4.625 4.125 C-3.88189799 0.07922241 -3.88189799 0.07922241 0 0 Z " fill="#3A89BE" transform="translate(88.0625,115.9375)"/>
<path d="M0 0 C0.66 0 1.32 0 2 0 C1.65930765 3.15140423 1.41923159 4.60781561 -0.9375 6.8125 C-3 8 -3 8 -5 8 C-5.0825 8.5775 -5.165 9.155 -5.25 9.75 C-6.24520556 12.73561669 -7.52450434 14.07461449 -10 16 C-12.75 16.25 -12.75 16.25 -15 16 C-11.48948335 11.65364605 -7.87898651 7.85792612 -3.515625 4.359375 C-1.74087049 2.8811002 -1.74087049 2.8811002 0 0 Z " fill="#5FB77A" transform="translate(98,116)"/>
<path d="M0 0 C1.32 0 2.64 0 4 0 C4 0.66 4 1.32 4 2 C4.78375 2.28875 5.5675 2.5775 6.375 2.875 C9 4 9 4 11 6 C11.99 5.67 12.98 5.34 14 5 C14.99 5.66 15.98 6.32 17 7 C15.25 9.0625 15.25 9.0625 13 11 C8.95961978 10.78599681 6.94880207 8.28699822 4.25 5.5 C3.45078125 4.6853125 2.6515625 3.870625 1.828125 3.03125 C0 1 0 1 0 0 Z " fill="#3BA158" transform="translate(95,193)"/>
<path d="M0 0 C1.65 0 3.3 0 5 0 C0.01595832 6.03331362 -5.41915303 11.5184171 -11 17 C-11.33 15.68 -11.66 14.36 -12 13 C-11.34 12.67 -10.68 12.34 -10 12 C-10 11.34 -10 10.68 -10 10 C-8.68 10 -7.36 10 -6 10 C-6.33 8.68 -6.66 7.36 -7 6 C-4.35261084 4.5393715 -3.10551666 4 0 4 C0 2.68 0 1.36 0 0 Z " fill="#349F56" transform="translate(140,166)"/>
<path d="M0 0 C1.32 0.33 2.64 0.66 4 1 C2.01929563 3.35043586 0.01418678 5.67822804 -2 8 C-2.70125 8.825 -3.4025 9.65 -4.125 10.5 C-6 12 -6 12 -8.125 11.9375 C-10 11 -10 11 -12 8 C-10.02 8 -8.04 8 -6 8 C-6 7.34 -6 6.68 -6 6 C-5.01 6 -4.02 6 -3 6 C-3 5.01 -3 4.02 -3 3 C-2.34 3 -1.68 3 -1 3 C-0.67 2.01 -0.34 1.02 0 0 Z " fill="#418DBA" transform="translate(62,140)"/>
<path d="M0 0 C0.99 0.33 1.98 0.66 3 1 C3.33 1.99 3.66 2.98 4 4 C2.70703125 5.9375 2.70703125 5.9375 0.8125 8 C0.20019531 8.680625 -0.41210938 9.36125 -1.04296875 10.0625 C-2.92077226 11.92156295 -4.84767281 13.47284989 -7 15 C-7 13.02 -7 11.04 -7 9 C-6.01 8.67 -5.02 8.34 -4 8 C-1.0208206 5.70832354 -0.4952217 3.66464055 0 0 Z " fill="#4791BC" transform="translate(98,101)"/>
<path d="M0 0 C0.99 0.33 1.98 0.66 3 1 C2.38125 1.4125 1.7625 1.825 1.125 2.25 C-1.07345612 3.81151843 -1.07345612 3.81151843 -1.921875 5.91015625 C-3.12360633 8.23959923 -4.38530949 9.49756636 -6.375 11.1875 C-6.96023437 11.69667969 -7.54546875 12.20585938 -8.1484375 12.73046875 C-10.11024909 14.07559273 -11.676089 14.57514402 -14 15 C-9.59156563 9.70987876 -4.92440206 4.81191572 0 0 Z " fill="#69A4C9" transform="translate(53,57)"/>
<path d="M0 0 C3.61260785 0.30105065 4.74509577 0.70868088 7.1875 3.5 C8.0846875 4.7375 8.0846875 4.7375 9 6 C9.66 6.33 10.32 6.66 11 7 C10.34 8.65 9.68 10.3 9 12 C8.34 11.34 7.68 10.68 7 10 C7.33 9.01 7.66 8.02 8 7 C7.34 7 6.68 7 6 7 C6 6.34 6 5.68 6 5 C4.02 5.33 2.04 5.66 0 6 C0 4.02 0 2.04 0 0 Z " fill="#257DB2" transform="translate(60,65)"/>
<path d="M0 0 C7.48291572 6.15034169 7.48291572 6.15034169 10 10 C4.68248175 9.65693431 4.68248175 9.65693431 2 9 C-0.36779765 6.23756941 -0.19641322 3.53543792 0 0 Z " fill="#289C4B" transform="translate(130,133)"/>
<path d="M0 0 C0.33 1.32 0.66 2.64 1 4 C0.34 4 -0.32 4 -1 4 C-1 4.66 -1 5.32 -1 6 C-1.66 6 -2.32 6 -3 6 C-3.061875 6.61875 -3.12375 7.2375 -3.1875 7.875 C-4 10 -4 10 -6.5625 11.25 C-7.366875 11.4975 -8.17125 11.745 -9 12 C-7.54718935 6.67302761 -3.91888622 3.63597198 0 0 Z " fill="#478FBD" transform="translate(25,85)"/>
<path d="M0 0 C3.70653731 1.23551244 4.64915435 2.96665078 7 6 C7.66 6.33 8.32 6.66 9 7 C8.67 7.66 8.34 8.32 8 9 C7.01 9.33 6.02 9.66 5 10 C5 8.68 5 7.36 5 6 C3.02 6 1.04 6 -1 6 C-0.67 4.02 -0.34 2.04 0 0 Z " fill="#3787B7" transform="translate(71,74)"/>
<path d="M0 0 C2.32070777 1.31506774 3.44012796 2.83844834 4.875 5.0625 C3.555 5.3925 2.235 5.7225 0.875 6.0625 C0.875 4.7425 0.875 3.4225 0.875 2.0625 C0.2975 2.743125 -0.28 3.42375 -0.875 4.125 C-1.6175 4.764375 -2.36 5.40375 -3.125 6.0625 C-5.375 5.8125 -5.375 5.8125 -7.125 5.0625 C-2.75092047 0.08090943 -2.75092047 0.08090943 0 0 Z " fill="#389E57" transform="translate(107.125,109.9375)"/>
<path d="M0 0 C0.99 0 1.98 0 3 0 C3.33 1.32 3.66 2.64 4 4 C1.03 6.475 1.03 6.475 -2 9 C-2 8.01 -2 7.02 -2 6 C-2.99 6 -3.98 6 -5 6 C-5 5.34 -5 4.68 -5 4 C-2.525 4.495 -2.525 4.495 0 5 C0 3.35 0 1.7 0 0 Z " fill="#289D4A" transform="translate(124,180)"/>
<path d="M0 0 C-0.97566112 1.16959987 -1.955625 2.33561177 -2.9375 3.5 C-3.48277344 4.1496875 -4.02804688 4.799375 -4.58984375 5.46875 C-5.05519531 5.9740625 -5.52054687 6.479375 -6 7 C-6.33 7 -6.66 7 -7 7 C-7 5.02 -7 3.04 -7 1 C-3.375 -1.125 -3.375 -1.125 0 0 Z " fill="#398ABD" transform="translate(73,134)"/>
<path d="M0 0 C3.70653731 1.23551244 4.64915435 2.96665078 7 6 C7.66 6.33 8.32 6.66 9 7 C9 7.66 9 8.32 9 9 C7.0625 8.6875 7.0625 8.6875 5 8 C4.67 7.01 4.34 6.02 4 5 C1.98491642 4.26676204 1.98491642 4.26676204 0 4 C0 2.68 0 1.36 0 0 Z " fill="#47A864" transform="translate(140,143)"/>
<path d="M0 0 C1.32 0 2.64 0 4 0 C4 0.66 4 1.32 4 2 C4.804375 2.268125 5.60875 2.53625 6.4375 2.8125 C7.7059375 3.4003125 7.7059375 3.4003125 9 4 C9.33 4.99 9.66 5.98 10 7 C5.04303419 5.76075855 2.88341534 4.21422242 0 0 Z " fill="#2B9C4F" transform="translate(95,193)"/>
<path d="M0 0 C1.32 0.99 2.64 1.98 4 3 C3.125 7.75 3.125 7.75 2 10 C1.34 10 0.68 10 0 10 C0 6.7 0 3.4 0 0 Z " fill="#3FA260" transform="translate(149,152)"/>
<path d="M0 0 C1.17539996 0.92652701 2.34010577 1.86663387 3.5 2.8125 C4.1496875 3.33457031 4.799375 3.85664062 5.46875 4.39453125 C7 6 7 6 7 9 C6.67 8.34 6.34 7.68 6 7 C4.35 7.33 2.7 7.66 1 8 C0.67 5.36 0.34 2.72 0 0 Z " fill="#2F9E51" transform="translate(120,123)"/>
<path d="M0 0 C-1.32 1.65 -2.64 3.3 -4 5 C-6.475 4.01 -6.475 4.01 -9 3 C-6.38997624 -0.48003168 -4.1689578 -0.27793052 0 0 Z " fill="#ADABAE" transform="translate(164,147)"/>
<path d="M0 0 C3.375 0.6875 3.375 0.6875 7 2 C8.4375 4.625 8.4375 4.625 9 7 C6 7 6 7 4.39453125 5.46875 C3.87246094 4.8190625 3.35039062 4.169375 2.8125 3.5 C2.28269531 2.8503125 1.75289062 2.200625 1.20703125 1.53125 C0.80871094 1.0259375 0.41039063 0.520625 0 0 Z " fill="#2F80B2" transform="translate(23,121)"/>
<path d="M0 0 C1.65 0 3.3 0 5 0 C4.04578192 1.14926266 3.08647955 2.29430541 2.125 3.4375 C1.59132812 4.07558594 1.05765625 4.71367187 0.5078125 5.37109375 C-1 7 -1 7 -3 8 C-3.33 7.01 -3.66 6.02 -4 5 C-2.68 4.67 -1.36 4.34 0 4 C0 2.68 0 1.36 0 0 Z " fill="#3EA15B" transform="translate(140,166)"/>
<path d="M0 0 C0.33 0.66 0.66 1.32 1 2 C-0.54442235 5.63393495 -1.48567857 6.78822059 -5.1875 8.3125 C-6.5796875 8.6528125 -6.5796875 8.6528125 -8 9 C-7.04270084 7.87411986 -6.08412105 6.7493285 -5.125 5.625 C-4.59132813 4.99851563 -4.05765625 4.37203125 -3.5078125 3.7265625 C-2.38567993 2.44163349 -1.20628025 1.20628025 0 0 Z " fill="#7AC78D" transform="translate(82,132)"/>
<path d="M0 0 C0.66 0 1.32 0 2 0 C1.8125 2.3125 1.8125 2.3125 1 5 C-1.5625 6.8125 -1.5625 6.8125 -4 8 C-2.87548273 5.0280615 -1.77706209 2.66559313 0 0 Z " fill="#3A9F58" transform="translate(98,116)"/>
<path d="M0 0 C0.6875 1.8125 0.6875 1.8125 1 4 C-0.5342548 6.18025682 -1.64333489 6.88790525 -4.1875 7.6875 C-4.785625 7.790625 -5.38375 7.89375 -6 8 C-4.55746343 4.63408134 -2.66735273 2.48952921 0 0 Z " fill="#72C388" transform="translate(73,141)"/>
<path d="M0 0 C-0.39803561 2.88575819 -0.79009069 3.82189513 -3.0625 5.75 C-3.701875 6.1625 -4.34125 6.575 -5 7 C-5 5.02 -5 3.04 -5 1 C-2 0 -2 0 0 0 Z " fill="#3D88B8" transform="translate(96,109)"/>
<path d="M0 0 C2.99332739 0.9977758 3.94766315 1.7522025 6 4 C5.34 5.65 4.68 7.3 4 9 C3.34 8.34 2.68 7.68 2 7 C2.33 6.01 2.66 5.02 3 4 C2.34 4 1.68 4 1 4 C0.67 2.68 0.34 1.36 0 0 Z " fill="#4893BD" transform="translate(65,68)"/>
<path d="M0 0 C-0.625 1.875 -0.625 1.875 -2 4 C-5.125 5.25 -5.125 5.25 -8 6 C-3.375 0 -3.375 0 0 0 Z " fill="#5596BE" transform="translate(47,66)"/>
<path d="M0 0 C2.02054804 1.64169528 4.02043058 3.30911778 6 5 C6 5.33 6 5.66 6 6 C4.35 6 2.7 6 1 6 C0.67 4.02 0.34 2.04 0 0 Z " fill="#389F58" transform="translate(112,115)"/>
<path d="M0 0 C0.33 0.66 0.66 1.32 1 2 C0.14883791 4.43189168 -0.84845643 6.69691285 -2 9 C-2.66 7.68 -3.32 6.36 -4 5 C-2.68 3.35 -1.36 1.7 0 0 Z " fill="#CFCDCF" transform="translate(115,99)"/>
</svg>
